<svg width="72" height="73" viewBox="0 0 72 73" fill="none" xmlns="http://www.w3.org/2000/svg">
<g clip-path="url(#clip0_100_1272)">
<mask id="mask0_100_1272" style="mask-type:luminance" maskUnits="userSpaceOnUse" x="0" y="0" width="72" height="73">
<path d="M71.4 72.0011V1.20108H0.6V72.0011H71.4Z" fill="white" stroke="white" stroke-width="1.2"/>
</mask>
<g mask="url(#mask0_100_1272)">
<path d="M18.3219 12.6977C17.3589 13.6607 17.2919 15.1552 18.1724 16.0356C19.0529 16.9161 20.5473 16.8491 21.5103 15.8861C22.7558 14.6406 22.6163 13.5048 22.1579 12.0502C21.6997 10.5954 21.5601 9.45956 22.8056 8.21404C23.7686 7.25104 25.263 7.18411 26.1434 8.06456C27.0239 8.94501 26.957 10.4394 25.994 11.4024" stroke="#57E426" stroke-width="1.2" stroke-miterlimit="10" stroke-linecap="round" stroke-linejoin="round"/>
<path d="M26.9404 7.26739L26.1433 8.06445" stroke="#57E426" stroke-width="1.2" stroke-miterlimit="10" stroke-linecap="round" stroke-linejoin="round"/>
<path d="M18.1723 16.0355L17.3752 16.8325" stroke="#57E426" stroke-width="1.2" stroke-miterlimit="10" stroke-linecap="round" stroke-linejoin="round"/>
<path d="M30.5702 14.0199C29.8237 15.2678 28.8748 16.4924 27.7375 17.6296C22.8951 22.472 16.4714 23.8995 13.3899 20.818C10.3082 17.7364 11.7357 11.3127 16.5781 6.47019C21.4207 1.62776 27.8444 0.200278 30.9259 3.28179C32.4175 4.7734 32.8526 7.04773 32.3557 9.54692" stroke="#57E426" stroke-width="1.2" stroke-miterlimit="10" stroke-linecap="round" stroke-linejoin="round"/>
<path d="M30.9259 3.28188L34.1143 6.47027C37.1958 9.55179 35.7684 15.9755 30.9259 20.8181C26.0833 25.6605 19.6597 27.088 16.578 24.0065L13.3896 20.8181" stroke="#57E426" stroke-width="1.2" stroke-miterlimit="10" stroke-linecap="round" stroke-linejoin="round"/>
<path d="M50.4897 35.4213C51.4527 36.3843 52.9471 36.4512 53.8275 35.5708C54.708 34.6903 54.641 33.1959 53.678 32.2329C52.4325 30.9875 51.2967 31.1269 49.8421 31.5853C48.3873 32.0436 47.2515 32.1831 46.006 30.9376C45.043 29.9746 44.976 28.4803 45.8565 27.5997C46.7369 26.7194 48.2314 26.7862 49.1944 27.7492" stroke="#57E426" stroke-width="1.2" stroke-miterlimit="10" stroke-linecap="round" stroke-linejoin="round"/>
<path d="M45.0593 26.8025L45.8564 27.5996" stroke="#57E426" stroke-width="1.2" stroke-miterlimit="10" stroke-linecap="round" stroke-linejoin="round"/>
<path d="M53.8276 35.5709L54.6247 36.3679" stroke="#57E426" stroke-width="1.2" stroke-miterlimit="10" stroke-linecap="round" stroke-linejoin="round"/>
<path d="M44.2622 37.165C49.1048 42.0075 55.5284 43.4349 58.6101 40.3534C61.6916 37.2719 60.2641 30.8481 55.4217 26.0057C50.5791 21.1631 44.1555 19.7356 41.0738 22.8172C37.9923 25.8988 39.4198 32.3224 44.2622 37.165Z" stroke="#57E426" stroke-width="1.2" stroke-miterlimit="10" stroke-linecap="round" stroke-linejoin="round"/>
<path d="M41.0738 22.8172L37.8854 26.0056C34.8039 29.0873 36.2312 35.511 41.0738 40.3534C45.9163 45.1959 52.34 46.6235 55.4216 43.5418L58.61 40.3534" stroke="#57E426" stroke-width="1.2" stroke-miterlimit="10" stroke-linecap="round" stroke-linejoin="round"/>
<path d="M30.2242 61.7998C29.2612 62.7628 29.1943 64.2572 30.0747 65.1377C30.9552 66.0181 32.4496 65.9512 33.4126 64.9882C34.6581 63.7427 34.5186 62.6068 34.0602 61.1522C33.6019 59.6974 33.4624 58.5616 34.7079 57.3161C35.6709 56.3531 37.1653 56.2862 38.0458 57.1666C38.9262 58.0471 38.8593 59.5415 37.8963 60.5045" stroke="#57E426" stroke-width="1.2" stroke-miterlimit="10" stroke-linecap="round" stroke-linejoin="round"/>
<path d="M38.843 56.3697L38.0459 57.1667" stroke="#57E426" stroke-width="1.2" stroke-miterlimit="10" stroke-linecap="round" stroke-linejoin="round"/>
<path d="M30.0747 65.1378L29.2776 65.9348" stroke="#57E426" stroke-width="1.2" stroke-miterlimit="10" stroke-linecap="round" stroke-linejoin="round"/>
<path d="M32.6922 52.3965C31.2373 53.1868 29.8003 54.2529 28.4805 55.5725C23.6381 60.415 22.2106 66.8387 25.2921 69.9203C28.3738 73.0018 34.7975 71.5743 39.6399 66.7319C44.4823 61.8894 45.9098 55.4657 42.8283 52.3841C41.4263 50.9821 39.3325 50.5134 37.0107 50.875" stroke="#57E426" stroke-width="1.2" stroke-miterlimit="10" stroke-linecap="round" stroke-linejoin="round"/>
<path d="M42.8283 52.3842L39.6399 49.1958C36.5584 46.1143 30.1345 47.5416 25.2921 52.3842C20.4496 57.2268 19.022 63.6504 22.1037 66.732L25.2921 69.9204" stroke="#57E426" stroke-width="1.2" stroke-miterlimit="10" stroke-linecap="round" stroke-linejoin="round"/>
</g>
</g>
<defs>
<clipPath id="clip0_100_1272">
<rect width="72" height="72" fill="white" transform="translate(0 0.601074)"/>
</clipPath>
</defs>
</svg>
