<svg width="65" height="66" viewBox="0 0 65 66" fill="none" xmlns="http://www.w3.org/2000/svg">
<mask id="mask0_100_1350" style="mask-type:luminance" maskUnits="userSpaceOnUse" x="0" y="0" width="65" height="66">
<path d="M64.4 65.0011V1.20108H0.6V65.0011H64.4Z" fill="white" stroke="white" stroke-width="1.2"/>
</mask>
<g mask="url(#mask0_100_1350)">
<path d="M39.375 25.5386L39.375 25.5386C39.1286 26.2154 38.3802 26.5645 37.7032 26.3182L39.375 25.5386ZM39.375 25.5386C39.6214 24.8617 39.2724 24.1133 38.5954 23.8669L39.375 25.5386ZM38.5954 23.8668C37.9186 23.6206 37.1701 23.9695 36.9237 24.6464L38.5954 23.8668ZM36.9236 24.6464C36.6773 25.3234 37.0264 26.0718 37.7032 26.3182L36.9236 24.6464Z" fill="black" stroke="#57E426" stroke-width="1.2"/>
<path d="M17.9015 17.7229L17.9014 17.723C17.6551 18.3997 16.9067 18.7488 16.2297 18.5025L17.9015 17.7229ZM17.9015 17.7229C18.1479 17.0461 17.7989 16.2977 17.1219 16.0512L17.9015 17.7229ZM15.4502 16.8307C15.2038 17.5077 15.5529 18.2562 16.2296 18.5025L17.1219 16.0512C16.445 15.8048 15.6965 16.1539 15.4502 16.8307Z" fill="black" stroke="#57E426" stroke-width="1.2"/>
<path d="M48.2387 30.7788L52.7938 18.2638C46.6701 13.404 39.1353 10.6616 31.3203 10.448C23.5056 10.2345 15.9707 7.36509 9.84699 2.50532L1.9043 24.1058C8.02813 28.9655 15.6899 31.708 23.5047 31.9215C27.5291 32.0314 31.4792 32.8121 35.2007 34.207" stroke="#57E426" stroke-width="1.2" stroke-miterlimit="10" stroke-linecap="round" stroke-linejoin="round"/>
<path d="M30.9915 22.4874C30.272 24.4639 28.0865 25.4831 26.11 24.7637C24.1333 24.0443 23.1143 21.8587 23.8336 19.8822C24.553 17.9056 26.7387 16.8865 28.7152 17.6059C30.6918 18.3252 31.7109 20.5109 30.9915 22.4874Z" stroke="#57E426" stroke-width="1.2" stroke-miterlimit="10" stroke-linecap="round" stroke-linejoin="round"/>
<path d="M25.6251 49.3714L25.6251 49.3714C25.3787 48.6945 25.7277 47.9461 26.4047 47.6996L25.6251 49.3714ZM25.6251 49.3714C25.8715 50.0482 26.6199 50.3973 27.2969 50.1509L25.6251 49.3714ZM28.0764 48.4791C28.3228 49.1561 27.9737 49.9046 27.2969 50.1509L28.0764 48.4791ZM28.0764 48.4791C27.83 47.8023 27.0815 47.4533 26.4047 47.6996L28.0764 48.4791Z" fill="black" stroke="#57E426" stroke-width="1.2"/>
<path d="M47.0985 41.5557L47.0985 41.5557C46.8521 40.8788 47.2011 40.1304 47.878 39.884L47.0985 41.5557ZM47.0985 41.5557C47.3448 42.2325 48.0933 42.5816 48.7703 42.3353L47.0985 41.5557ZM49.5498 40.6635C49.7962 41.3404 49.4471 42.0889 48.7703 42.3352L49.5498 40.6635ZM49.5498 40.6635C49.3035 39.9867 48.5549 39.6376 47.8781 39.8839L49.5498 40.6635Z" fill="black" stroke="#57E426" stroke-width="1.2"/>
<path d="M12.2063 42.0963C18.33 37.2366 25.8648 34.4941 33.6798 34.2806C41.4945 34.0671 49.0294 31.3246 55.1531 26.465L63.0958 47.9383C56.972 52.7981 49.3102 55.5405 41.4954 55.7541C33.6804 55.9676 26.1457 58.837 20.0219 63.6968L12.2063 42.0963Z" stroke="#57E426" stroke-width="1.2" stroke-miterlimit="10" stroke-linecap="round" stroke-linejoin="round"/>
<path d="M34.0086 46.3201C34.728 48.2967 36.9135 49.3159 38.8901 48.5964C40.8667 47.8771 41.8858 45.6915 41.1664 43.7149C40.447 41.7384 38.2614 40.7192 36.2848 41.4387C34.3082 42.158 33.2891 44.3436 34.0086 46.3201Z" stroke="#57E426" stroke-width="1.2" stroke-miterlimit="10" stroke-linecap="round" stroke-linejoin="round"/>
</g>
</svg>
