<svg width="135" height="41" viewBox="0 0 135 41" fill="none" xmlns="http://www.w3.org/2000/svg">
<rect x="0.454102" y="0.100922" width="134" height="40" rx="6" fill="black"/>
<g clip-path="url(#clip0_40_1145)">
<path d="M22.542 30.1009C23.2107 30.1009 23.7939 29.5178 23.7939 28.8491V25.9254H24.6298C25.1314 25.9254 25.4657 25.591 25.4657 25.0895V16.7391H15.4429V25.0896C15.4429 25.5911 15.7772 25.9255 16.2788 25.9255H17.1147V28.8491C17.1147 29.5178 17.6978 30.101 18.3666 30.101C19.0352 30.101 19.6183 29.5178 19.6183 28.8491V25.9255H21.2902V28.8491C21.2901 29.5178 21.8733 30.1009 22.542 30.1009Z" fill="white"/>
<path d="M27.5534 25.0896C28.2221 25.0896 28.8051 24.5065 28.8051 23.8377V17.9904C28.8051 17.3253 28.2221 16.7391 27.5534 16.7391C26.8846 16.7391 26.3015 17.3253 26.3015 17.9904V23.8377C26.3015 24.5064 26.8845 25.0896 27.5534 25.0896Z" fill="white"/>
<path d="M13.355 25.0896C14.0238 25.0896 14.6069 24.5065 14.6069 23.8377V17.9904C14.6069 17.3253 14.0239 16.7391 13.355 16.7391C12.6863 16.7391 12.1033 17.3253 12.1033 17.9904V23.8377C12.1033 24.5064 12.6863 25.0896 13.355 25.0896Z" fill="white"/>
<path d="M24.4625 10.2271C24.2954 10.0589 24.0466 10.0589 23.8795 10.2271L22.7584 11.3445L22.7066 11.3961C22.0419 11.0632 21.2965 10.897 20.4665 10.8954C20.4624 10.8954 20.4584 10.8952 20.4544 10.8952H20.4542C20.45 10.8952 20.4462 10.8954 20.442 10.8954C19.612 10.897 18.8667 11.0632 18.202 11.3961L18.1501 11.3445L17.029 10.2271C16.8618 10.0589 16.6131 10.0589 16.446 10.2271C16.2788 10.3943 16.2788 10.6425 16.446 10.8096L17.5305 11.8943C17.1811 12.1276 16.8642 12.4131 16.5886 12.7397C15.9289 13.5216 15.5081 14.5393 15.4503 15.642C15.4497 15.6535 15.4486 15.6648 15.4481 15.6763C15.4445 15.7514 15.4429 15.8268 15.4429 15.9026H25.4657C25.4657 15.8268 25.4639 15.7514 25.4605 15.6763C25.4599 15.6648 25.4588 15.6535 25.4581 15.642C25.4004 14.5393 24.9795 13.5216 24.3198 12.7397C24.0443 12.4132 23.7273 12.1277 23.3779 11.8944L24.4625 10.8097C24.6298 10.6425 24.6298 10.3943 24.4625 10.2271ZM18.365 14.4431C18.0192 14.4431 17.7388 14.1627 17.7388 13.8169C17.7388 13.4711 18.0192 13.1907 18.365 13.1907C18.7108 13.1907 18.9912 13.4711 18.9912 13.8169C18.9912 14.1627 18.7108 14.4431 18.365 14.4431ZM22.5435 14.4431C22.1977 14.4431 21.9173 14.1627 21.9173 13.8169C21.9173 13.4711 22.1977 13.1907 22.5435 13.1907C22.8894 13.1907 23.1697 13.4711 23.1697 13.8169C23.1697 14.1627 22.8894 14.4431 22.5435 14.4431Z" fill="white"/>
</g>
<path d="M40.1501 11.4449H42.1581C42.5954 11.4449 42.9794 11.5143 43.3101 11.6529C43.6461 11.7863 43.9261 11.9783 44.1501 12.2289C44.3741 12.4743 44.5421 12.7729 44.6541 13.1249C44.7661 13.4716 44.8221 13.8556 44.8221 14.2769C44.8168 14.6983 44.7581 15.0823 44.6461 15.4289C44.5341 15.7756 44.3661 16.0743 44.1421 16.3249C43.9234 16.5703 43.6488 16.7623 43.3181 16.9009C42.9874 17.0343 42.6008 17.1009 42.1581 17.1009H40.1501V11.4449ZM40.8461 12.0769V16.4689H42.1101C42.3981 16.4689 42.6728 16.4263 42.9341 16.3409C43.2008 16.2503 43.4274 16.0929 43.6141 15.8689C43.7848 15.6716 43.9101 15.4396 43.9901 15.1729C44.0701 14.9009 44.1101 14.6023 44.1101 14.2769C44.1101 13.9409 44.0701 13.6423 43.9901 13.3809C43.9101 13.1196 43.7901 12.8929 43.6301 12.7009C43.4701 12.5089 43.2674 12.3569 43.0221 12.2449C42.7768 12.1329 42.4861 12.0769 42.1501 12.0769H40.8461ZM48.5371 17.1649C48.0944 17.1649 47.7078 17.0929 47.3771 16.9489C47.0464 16.7996 46.7691 16.5969 46.5451 16.3409C46.3211 16.0849 46.1531 15.7809 46.0411 15.4289C45.9291 15.0769 45.8731 14.6929 45.8731 14.2769C45.8731 13.8609 45.9291 13.4769 46.0411 13.1249C46.1531 12.7676 46.3211 12.4609 46.5451 12.2049C46.7691 11.9489 47.0464 11.7489 47.3771 11.6049C47.7078 11.4556 48.0944 11.3809 48.5371 11.3809C48.9744 11.3809 49.3584 11.4556 49.6891 11.6049C50.0198 11.7489 50.2971 11.9489 50.5211 12.2049C50.7451 12.4609 50.9131 12.7676 51.0251 13.1249C51.1371 13.4769 51.1931 13.8609 51.1931 14.2769C51.1931 14.6929 51.1371 15.0769 51.0251 15.4289C50.9131 15.7809 50.7451 16.0849 50.5211 16.3409C50.2971 16.5969 50.0198 16.7996 49.6891 16.9489C49.3584 17.0929 48.9744 17.1649 48.5371 17.1649ZM48.5371 12.0129C48.2011 12.0129 47.9104 12.0743 47.6651 12.1969C47.4198 12.3143 47.2171 12.4769 47.0571 12.6849C46.8971 12.8929 46.7771 13.1356 46.6971 13.4129C46.6171 13.6849 46.5771 13.9729 46.5771 14.2769C46.5771 14.5809 46.6144 14.8689 46.6891 15.1409C46.7691 15.4129 46.8891 15.6529 47.0491 15.8609C47.2091 16.0689 47.4118 16.2343 47.6571 16.3569C47.9078 16.4743 48.2011 16.5329 48.5371 16.5329C48.8731 16.5329 49.1638 16.4743 49.4091 16.3569C49.6544 16.2343 49.8544 16.0716 50.0091 15.8689C50.1691 15.6609 50.2864 15.4209 50.3611 15.1489C50.4411 14.8769 50.4811 14.5863 50.4811 14.2769C50.4811 13.9676 50.4411 13.6769 50.3611 13.4049C50.2864 13.1276 50.1691 12.8876 50.0091 12.6849C49.8491 12.4769 49.6464 12.3143 49.4011 12.1969C49.1558 12.0743 48.8678 12.0129 48.5371 12.0129ZM56.176 11.4449L57.408 16.5009L58.696 11.4449H59.448L57.912 17.1009H56.856L55.624 12.1089L54.392 17.1009H53.344L51.808 11.4449H52.592L53.88 16.5009L55.112 11.4449H56.176ZM60.4192 17.1009V11.4449H61.3072L64.2592 16.1569V11.4449H64.9552V17.1009H64.0832L61.1152 12.4049V17.1009H60.4192ZM66.5089 11.4449H67.2049V16.4689H70.3089V17.1009H66.5089V11.4449ZM73.6146 17.1649C73.1719 17.1649 72.7853 17.0929 72.4546 16.9489C72.1239 16.7996 71.8466 16.5969 71.6226 16.3409C71.3986 16.0849 71.2306 15.7809 71.1186 15.4289C71.0066 15.0769 70.9506 14.6929 70.9506 14.2769C70.9506 13.8609 71.0066 13.4769 71.1186 13.1249C71.2306 12.7676 71.3986 12.4609 71.6226 12.2049C71.8466 11.9489 72.1239 11.7489 72.4546 11.6049C72.7853 11.4556 73.1719 11.3809 73.6146 11.3809C74.0519 11.3809 74.4359 11.4556 74.7666 11.6049C75.0973 11.7489 75.3746 11.9489 75.5986 12.2049C75.8226 12.4609 75.9906 12.7676 76.1026 13.1249C76.2146 13.4769 76.2706 13.8609 76.2706 14.2769C76.2706 14.6929 76.2146 15.0769 76.1026 15.4289C75.9906 15.7809 75.8226 16.0849 75.5986 16.3409C75.3746 16.5969 75.0973 16.7996 74.7666 16.9489C74.4359 17.0929 74.0519 17.1649 73.6146 17.1649ZM73.6146 12.0129C73.2786 12.0129 72.9879 12.0743 72.7426 12.1969C72.4973 12.3143 72.2946 12.4769 72.1346 12.6849C71.9746 12.8929 71.8546 13.1356 71.7746 13.4129C71.6946 13.6849 71.6546 13.9729 71.6546 14.2769C71.6546 14.5809 71.6919 14.8689 71.7666 15.1409C71.8466 15.4129 71.9666 15.6529 72.1266 15.8609C72.2866 16.0689 72.4893 16.2343 72.7346 16.3569C72.9853 16.4743 73.2786 16.5329 73.6146 16.5329C73.9506 16.5329 74.2413 16.4743 74.4866 16.3569C74.7319 16.2343 74.9319 16.0716 75.0866 15.8689C75.2466 15.6609 75.3639 15.4209 75.4386 15.1489C75.5186 14.8769 75.5586 14.5863 75.5586 14.2769C75.5586 13.9676 75.5186 13.6769 75.4386 13.4049C75.3639 13.1276 75.2466 12.8876 75.0866 12.6849C74.9266 12.4769 74.7239 12.3143 74.4786 12.1969C74.2333 12.0743 73.9453 12.0129 73.6146 12.0129ZM81.2234 17.1009L80.7754 15.8849H77.9754L77.5274 17.1009H76.7754L78.8794 11.4449H79.8794L81.9754 17.1009H81.2234ZM79.3754 12.0529L78.2074 15.2529H80.5434L79.3754 12.0529ZM82.9107 11.4449H84.9187C85.3561 11.4449 85.7401 11.5143 86.0707 11.6529C86.4067 11.7863 86.6867 11.9783 86.9107 12.2289C87.1347 12.4743 87.3027 12.7729 87.4147 13.1249C87.5267 13.4716 87.5827 13.8556 87.5827 14.2769C87.5774 14.6983 87.5187 15.0823 87.4067 15.4289C87.2947 15.7756 87.1267 16.0743 86.9027 16.3249C86.6841 16.5703 86.4094 16.7623 86.0787 16.9009C85.7481 17.0343 85.3614 17.1009 84.9187 17.1009H82.9107V11.4449ZM83.6067 12.0769V16.4689H84.8707C85.1587 16.4689 85.4334 16.4263 85.6947 16.3409C85.9614 16.2503 86.1881 16.0929 86.3747 15.8689C86.5454 15.6716 86.6707 15.4396 86.7507 15.1729C86.8307 14.9009 86.8707 14.6023 86.8707 14.2769C86.8707 13.9409 86.8307 13.6423 86.7507 13.3809C86.6707 13.1196 86.5507 12.8929 86.3907 12.7009C86.2307 12.5089 86.0281 12.3569 85.7827 12.2449C85.5374 12.1329 85.2467 12.0769 84.9107 12.0769H83.6067Z" fill="white"/>
<path d="M47.2521 30.1009L46.5241 28.0989H42.0301L41.2881 30.1009H39.5241L43.2761 20.2029H45.2921L49.0301 30.1009H47.2521ZM46.0201 26.6429L44.2841 21.7989L42.5341 26.6429H46.0201ZM49.9744 30.1009V22.7229H51.5004L51.5844 23.7449C51.8551 23.3623 52.1911 23.0776 52.5924 22.8909C53.0031 22.6949 53.4371 22.5969 53.8944 22.5969C54.4171 22.5969 54.8558 22.6856 55.2104 22.8629C55.5744 23.0403 55.8684 23.2829 56.0924 23.5909C56.3258 23.8989 56.4891 24.2629 56.5824 24.6829C56.6851 25.1029 56.7364 25.5603 56.7364 26.0549V30.1009H55.1404V26.2929C55.1404 25.9756 55.1171 25.6816 55.0704 25.4109C55.0331 25.1403 54.9538 24.9023 54.8324 24.6969C54.7111 24.4823 54.5384 24.3189 54.3144 24.2069C54.0998 24.0856 53.8198 24.0249 53.4744 24.0249C53.1478 24.0249 52.8491 24.1043 52.5784 24.2629C52.3171 24.4123 52.1118 24.6129 51.9624 24.8649C51.8224 25.1169 51.7198 25.3969 51.6544 25.7049C51.5984 26.0129 51.5704 26.3069 51.5704 26.5869V30.1009H49.9744ZM65.4097 30.1009H63.9117L63.8277 29.0789C63.557 29.4709 63.2163 29.7509 62.8057 29.9189C62.395 30.0869 61.933 30.1803 61.4197 30.1989C60.8503 30.1896 60.3603 30.0869 59.9497 29.8909C59.539 29.6856 59.1983 29.4149 58.9277 29.0789C58.657 28.7336 58.4563 28.3369 58.3257 27.8889C58.2043 27.4409 58.1437 26.9649 58.1437 26.4609C58.1437 25.9103 58.2137 25.4016 58.3537 24.9349C58.503 24.4683 58.7223 24.0623 59.0117 23.7169C59.301 23.3716 59.6557 23.1009 60.0757 22.9049C60.4957 22.6996 60.9857 22.5969 61.5457 22.5969C61.947 22.5969 62.353 22.6623 62.7637 22.7929C63.1743 22.9236 63.5243 23.1663 63.8137 23.5209V20.2029H65.4097V30.1009ZM61.7277 24.0389C61.373 24.0389 61.0697 24.0996 60.8177 24.2209C60.5657 24.3423 60.3557 24.5103 60.1877 24.7249C60.029 24.9396 59.9123 25.1963 59.8377 25.4949C59.763 25.7843 59.7257 26.0969 59.7257 26.4329C59.7257 26.7689 59.763 27.0816 59.8377 27.3709C59.9123 27.6603 60.029 27.9123 60.1877 28.1269C60.3557 28.3416 60.5657 28.5143 60.8177 28.6449C61.079 28.7663 61.3917 28.8269 61.7557 28.8269C62.101 28.8269 62.3997 28.7616 62.6517 28.6309C62.913 28.4909 63.1277 28.3089 63.2957 28.0849C63.473 27.8609 63.6037 27.6043 63.6877 27.3149C63.7717 27.0256 63.8137 26.7269 63.8137 26.4189C63.8137 26.0923 63.7717 25.7843 63.6877 25.4949C63.613 25.2056 63.4917 24.9583 63.3237 24.7529C63.1557 24.5383 62.941 24.3703 62.6797 24.2489C62.4183 24.1183 62.101 24.0483 61.7277 24.0389ZM67.1463 30.1009V22.7229H68.6443L68.7283 23.7729C69.2977 22.9889 70.0723 22.5969 71.0523 22.5969C71.1457 22.5969 71.2343 22.6016 71.3183 22.6109C71.4117 22.6109 71.4957 22.6156 71.5703 22.6249V24.1089C71.4583 24.1089 71.3463 24.1136 71.2343 24.1229C71.1317 24.1229 71.029 24.1229 70.9263 24.1229C70.5157 24.1323 70.1703 24.2069 69.8903 24.3469C69.6197 24.4776 69.3957 24.6549 69.2183 24.8789C69.0503 25.1029 68.929 25.3689 68.8543 25.6769C68.7797 25.9756 68.7423 26.2976 68.7423 26.6429V30.1009H67.1463ZM75.7827 22.5969C76.3707 22.5969 76.8887 22.6903 77.3367 22.8769C77.7847 23.0636 78.1627 23.3249 78.4707 23.6609C78.788 23.9876 79.026 24.3843 79.1847 24.8509C79.3433 25.3176 79.4227 25.8356 79.4227 26.4049C79.4227 26.9836 79.3433 27.5063 79.1847 27.9729C79.0353 28.4303 78.8067 28.8269 78.4987 29.1629C78.1907 29.4989 77.808 29.7556 77.3507 29.9329C76.9027 30.1103 76.38 30.1989 75.7827 30.1989C75.1947 30.1989 74.6767 30.1103 74.2287 29.9329C73.7807 29.7463 73.4027 29.4896 73.0947 29.1629C72.796 28.8269 72.5673 28.4256 72.4087 27.9589C72.2593 27.4923 72.1847 26.9743 72.1847 26.4049C72.1847 25.8356 72.2593 25.3176 72.4087 24.8509C72.5673 24.3843 72.8007 23.9876 73.1087 23.6609C73.4167 23.3249 73.7947 23.0636 74.2427 22.8769C74.6907 22.6903 75.204 22.5969 75.7827 22.5969ZM75.7827 28.8129C76.1467 28.8129 76.4547 28.7523 76.7067 28.6309C76.968 28.5003 77.178 28.3276 77.3367 28.1129C77.5047 27.8983 77.626 27.6463 77.7007 27.3569C77.7847 27.0676 77.8267 26.7549 77.8267 26.4189C77.8267 26.0829 77.7847 25.7703 77.7007 25.4809C77.626 25.1823 77.5047 24.9256 77.3367 24.7109C77.178 24.4963 76.968 24.3283 76.7067 24.2069C76.4547 24.0856 76.1467 24.0249 75.7827 24.0249C75.428 24.0249 75.1247 24.0856 74.8727 24.2069C74.6207 24.3283 74.4107 24.4963 74.2427 24.7109C74.0747 24.9256 73.9487 25.1823 73.8647 25.4809C73.79 25.7703 73.7527 26.0829 73.7527 26.4189C73.7527 26.7549 73.79 27.0676 73.8647 27.3569C73.9487 27.6463 74.07 27.8983 74.2287 28.1129C74.3967 28.3276 74.6067 28.5003 74.8587 28.6309C75.12 28.7523 75.428 28.8129 75.7827 28.8129ZM81.7829 19.6569C82.0722 19.6569 82.3102 19.7456 82.4969 19.9229C82.6929 20.1003 82.7909 20.3429 82.7909 20.6509C82.7909 20.9496 82.6929 21.1876 82.4969 21.3649C82.3102 21.5423 82.0722 21.6309 81.7829 21.6309C81.4749 21.6309 81.2275 21.5423 81.0409 21.3649C80.8542 21.1876 80.7609 20.9496 80.7609 20.6509C80.7609 20.3429 80.8542 20.1003 81.0409 19.9229C81.2275 19.7456 81.4749 19.6569 81.7829 19.6569ZM80.9709 30.1009V22.7229H82.5669V30.1009H80.9709ZM91.3999 30.1009H89.9019L89.8179 29.0789C89.5472 29.4709 89.2066 29.7509 88.7959 29.9189C88.3852 30.0869 87.9232 30.1803 87.4099 30.1989C86.8406 30.1896 86.3506 30.0869 85.9399 29.8909C85.5292 29.6856 85.1886 29.4149 84.9179 29.0789C84.6472 28.7336 84.4466 28.3369 84.3159 27.8889C84.1946 27.4409 84.1339 26.9649 84.1339 26.4609C84.1339 25.9103 84.2039 25.4016 84.3439 24.9349C84.4932 24.4683 84.7126 24.0623 85.0019 23.7169C85.2912 23.3716 85.6459 23.1009 86.0659 22.9049C86.4859 22.6996 86.9759 22.5969 87.5359 22.5969C87.9372 22.5969 88.3432 22.6623 88.7539 22.7929C89.1646 22.9236 89.5146 23.1663 89.8039 23.5209V20.2029H91.3999V30.1009ZM87.7179 24.0389C87.3632 24.0389 87.0599 24.0996 86.8079 24.2209C86.5559 24.3423 86.3459 24.5103 86.1779 24.7249C86.0192 24.9396 85.9026 25.1963 85.8279 25.4949C85.7532 25.7843 85.7159 26.0969 85.7159 26.4329C85.7159 26.7689 85.7532 27.0816 85.8279 27.3709C85.9026 27.6603 86.0192 27.9123 86.1779 28.1269C86.3459 28.3416 86.5559 28.5143 86.8079 28.6449C87.0692 28.7663 87.3819 28.8269 87.7459 28.8269C88.0912 28.8269 88.3899 28.7616 88.6419 28.6309C88.9032 28.4909 89.1179 28.3089 89.2859 28.0849C89.4632 27.8609 89.5939 27.6043 89.6779 27.3149C89.7619 27.0256 89.8039 26.7269 89.8039 26.4189C89.8039 26.0923 89.7619 25.7843 89.6779 25.4949C89.6032 25.2056 89.4819 24.9583 89.3139 24.7529C89.1459 24.5383 88.9312 24.3703 88.6699 24.2489C88.4086 24.1183 88.0912 24.0483 87.7179 24.0389ZM103.84 30.1009L103.112 28.0989H98.618L97.876 30.1009H96.112L99.864 20.2029H101.88L105.618 30.1009H103.84ZM102.608 26.6429L100.872 21.7989L99.122 26.6429H102.608ZM106.842 20.2029H110.468C111.038 20.2029 111.546 20.2683 111.994 20.3989C112.452 20.5203 112.839 20.7163 113.156 20.9869C113.483 21.2576 113.73 21.6076 113.898 22.0369C114.076 22.4569 114.164 22.9656 114.164 23.5629C114.164 24.1136 114.071 24.6036 113.884 25.0329C113.707 25.4623 113.45 25.8216 113.114 26.1109C112.788 26.4003 112.396 26.6196 111.938 26.7689C111.481 26.9183 110.972 26.9929 110.412 26.9929H108.466V30.1009H106.842V20.2029ZM110.328 25.5649C110.954 25.5649 111.472 25.4109 111.882 25.1029C112.302 24.7856 112.522 24.2956 112.54 23.6329C112.54 22.9329 112.358 22.4289 111.994 22.1209C111.64 21.8129 111.117 21.6589 110.426 21.6589H108.466V25.5649H110.328ZM115.934 30.1009V20.2029H117.558V24.5289H118.818L121.87 20.2029H123.746L120.218 25.0049L123.788 30.1009H121.884L118.972 25.9709H117.558V30.1009H115.934Z" fill="white"/>
<defs>
<clipPath id="clip0_40_1145">
<rect width="20" height="20" fill="white" transform="translate(10.4541 10.1009)"/>
</clipPath>
</defs>
</svg>
