<svg width="120" height="41" viewBox="0 0 120 41" fill="none" xmlns="http://www.w3.org/2000/svg">
<g clip-path="url(#clip0_29_828)">
<path d="M8.44487 39.2259C8.14019 39.2259 7.84287 39.222 7.54058 39.2152C6.91436 39.2071 6.2896 39.1525 5.67144 39.0521C5.09503 38.9528 4.53664 38.7682 4.0147 38.5042C3.49754 38.2424 3.02585 37.8992 2.6177 37.4876C2.20364 37.0809 1.85891 36.6092 1.59719 36.0911C1.33258 35.5697 1.14945 35.0108 1.05419 34.4339C0.951311 33.814 0.895651 33.1872 0.887687 32.5589C0.881347 32.348 0.873047 31.6458 0.873047 31.6458V8.54526C0.873047 8.54526 0.881887 7.85385 0.887737 7.65072C0.895363 7.0234 0.950699 6.39757 1.05327 5.77865C1.14871 5.20017 1.33197 4.63967 1.59673 4.11655C1.85749 3.59887 2.2003 3.12678 2.61187 2.7186C3.02297 2.30654 3.49617 1.96153 4.01421 1.69613C4.53495 1.43302 5.09228 1.24965 5.66753 1.15219C6.28772 1.05076 6.91465 0.995918 7.54304 0.988132L8.44536 0.975922H111.214L112.127 0.988622C112.75 0.996021 113.371 1.05037 113.985 1.15121C114.566 1.2499 115.13 1.43454 115.656 1.69906C116.694 2.23391 117.539 3.08008 118.071 4.11899C118.332 4.6385 118.512 5.19443 118.607 5.76791C118.71 6.39191 118.768 7.02266 118.78 7.65512C118.783 7.93832 118.783 8.24252 118.783 8.54526C118.791 8.92026 118.791 9.27719 118.791 9.63705V30.5657C118.791 30.929 118.791 31.2835 118.783 31.6409C118.783 31.9661 118.783 32.264 118.779 32.5706C118.768 33.1918 118.711 33.8113 118.608 34.4241C118.515 35.0052 118.333 35.5684 118.068 36.0941C117.805 36.6065 117.462 37.0742 117.053 37.4798C116.644 37.8936 116.172 38.2389 115.653 38.5023C115.128 38.7683 114.566 38.9537 113.985 39.0521C113.367 39.1531 112.742 39.2076 112.116 39.2152C111.823 39.222 111.517 39.2259 111.219 39.2259L110.135 39.2279L8.44487 39.2259Z" fill="black"/>
<path d="M24.769 20.4016C24.7797 19.567 25.0014 18.7486 25.4135 18.0226C25.8255 17.2967 26.4145 16.6867 27.1256 16.2496C26.6738 15.6044 26.0779 15.0735 25.385 14.6989C24.6922 14.3244 23.9216 14.1165 23.1344 14.0919C21.4552 13.9156 19.8272 15.0967 18.9715 15.0967C18.0992 15.0967 16.7817 14.1094 15.363 14.1386C14.4453 14.1682 13.551 14.4351 12.7671 14.9131C11.9832 15.3912 11.3365 16.0641 10.8901 16.8664C8.95607 20.2149 10.3987 25.1359 12.2513 27.8425C13.1782 29.1679 14.2615 30.6483 15.6789 30.5958C17.066 30.5383 17.584 29.7113 19.2583 29.7113C20.9171 29.7113 21.4031 30.5958 22.8493 30.5624C24.3377 30.5383 25.2754 29.2312 26.1698 27.8933C26.8358 26.9489 27.3483 25.9052 27.6882 24.8008C26.8235 24.4351 26.0856 23.8229 25.5665 23.0406C25.0474 22.2583 24.77 21.3405 24.769 20.4016Z" fill="white"/>
<path d="M22.0373 12.3118C22.8489 11.3376 23.2487 10.0854 23.1518 8.8212C21.912 8.95142 20.7668 9.54398 19.9443 10.4808C19.5421 10.9385 19.2341 11.4709 19.0379 12.0477C18.8416 12.6244 18.761 13.2342 18.8006 13.8422C19.4207 13.8486 20.0342 13.7142 20.5949 13.4491C21.1555 13.184 21.6487 12.7951 22.0373 12.3118Z" fill="white"/>
<path d="M42.3025 27.2406H37.5691L36.4324 30.597H34.4275L38.9109 18.179H40.9939L45.4773 30.597H43.4382L42.3025 27.2406ZM38.0593 25.6917H41.8113L39.9617 20.2445H39.91L38.0593 25.6917Z" fill="white"/>
<path d="M55.1599 26.0706C55.1599 28.8841 53.6541 30.6917 51.3816 30.6917C50.806 30.7219 50.2335 30.5892 49.7297 30.3091C49.2259 30.029 48.8112 29.6126 48.533 29.1077H48.49V33.5921H46.6316V21.5433H48.4305V23.0492H48.4646C48.7556 22.5467 49.1773 22.1325 49.6849 21.8507C50.1926 21.5688 50.7671 21.4299 51.3474 21.4486C53.6453 21.4486 55.1599 23.265 55.1599 26.0706ZM53.2498 26.0706C53.2498 24.2376 52.3025 23.0326 50.8572 23.0326C49.4373 23.0326 48.4822 24.263 48.4822 26.0706C48.4822 27.8949 49.4373 29.1165 50.8572 29.1165C52.3025 29.1165 53.2498 27.9203 53.2498 26.0706Z" fill="white"/>
<path d="M65.1248 26.0706C65.1248 28.8841 63.6189 30.6917 61.3465 30.6917C60.7708 30.7218 60.1983 30.5892 59.6945 30.3091C59.1907 30.029 58.776 29.6126 58.4978 29.1077H58.4548V33.5921H56.5964V21.5433H58.3953V23.0491H58.4294C58.7204 22.5467 59.1421 22.1325 59.6498 21.8507C60.1574 21.5688 60.7319 21.4299 61.3123 21.4486C63.6101 21.4486 65.1248 23.265 65.1248 26.0706ZM63.2146 26.0706C63.2146 24.2376 62.2674 23.0325 60.822 23.0325C59.4021 23.0325 58.447 24.263 58.447 26.0706C58.447 27.8949 59.4021 29.1165 60.822 29.1165C62.2674 29.1165 63.2146 27.9202 63.2146 26.0706Z" fill="white"/>
<path d="M71.7107 27.137C71.8484 28.3685 73.0447 29.177 74.6795 29.177C76.2459 29.177 77.3728 28.3685 77.3728 27.2581C77.3728 26.2942 76.6931 25.7171 75.0838 25.3216L73.4744 24.9339C71.1941 24.3831 70.1355 23.3167 70.1355 21.5862C70.1355 19.4436 72.0027 17.972 74.6541 17.972C77.2781 17.972 79.0769 19.4436 79.1375 21.5862H77.2615C77.1492 20.347 76.1248 19.5989 74.6277 19.5989C73.1306 19.5989 72.1062 20.3558 72.1062 21.4573C72.1062 22.3352 72.7605 22.8518 74.3611 23.2473L75.7292 23.5833C78.2771 24.1858 79.3357 25.2093 79.3357 27.0256C79.3357 29.3489 77.4851 30.804 74.5417 30.804C71.7878 30.804 69.9285 29.3831 69.8083 27.137L71.7107 27.137Z" fill="white"/>
<path d="M83.3464 19.4007V21.5433H85.0681V23.015H83.3464V28.0062C83.3464 28.7816 83.6912 29.1429 84.448 29.1429C84.6524 29.1394 84.8564 29.125 85.0593 29.0999V30.5628C84.719 30.6264 84.3732 30.6552 84.0271 30.6487C82.1941 30.6487 81.4792 29.9603 81.4792 28.2044V23.015H80.1628V21.5433H81.4792V19.4007H83.3464Z" fill="white"/>
<path d="M86.0652 26.0706C86.0652 23.222 87.7429 21.432 90.3591 21.432C92.9841 21.432 94.6541 23.222 94.6541 26.0706C94.6541 28.9271 92.9929 30.7093 90.3591 30.7093C87.7263 30.7093 86.0652 28.9271 86.0652 26.0706ZM92.7605 26.0706C92.7605 24.1165 91.865 22.9632 90.3591 22.9632C88.8533 22.9632 87.9587 24.1253 87.9587 26.0706C87.9587 28.0326 88.8533 29.1771 90.3591 29.1771C91.865 29.1771 92.7605 28.0326 92.7605 26.0706Z" fill="white"/>
<path d="M96.1863 21.5433H97.9587V23.0843H98.0017C98.1217 22.603 98.4036 22.1777 98.8002 21.8798C99.1968 21.5819 99.6838 21.4296 100.179 21.4486C100.394 21.4478 100.607 21.4711 100.816 21.5179V23.2562C100.546 23.1736 100.264 23.1356 99.9812 23.1439C99.7112 23.1329 99.4421 23.1805 99.1922 23.2834C98.9424 23.3863 98.7178 23.542 98.5338 23.7399C98.3498 23.9378 98.2108 24.1732 98.1264 24.4299C98.042 24.6865 98.0141 24.9584 98.0447 25.2269V30.597H96.1863L96.1863 21.5433Z" fill="white"/>
<path d="M109.385 27.9378C109.135 29.5814 107.534 30.7093 105.486 30.7093C102.852 30.7093 101.218 28.9447 101.218 26.1136C101.218 23.2738 102.861 21.432 105.408 21.432C107.913 21.432 109.488 23.1527 109.488 25.8978V26.5345H103.094V26.6468C103.064 26.98 103.106 27.3157 103.216 27.6315C103.326 27.9474 103.502 28.2361 103.733 28.4787C103.963 28.7212 104.242 28.912 104.552 29.0383C104.862 29.1646 105.195 29.2236 105.529 29.2113C105.968 29.2524 106.409 29.1507 106.786 28.9213C107.162 28.6918 107.455 28.3469 107.62 27.9378L109.385 27.9378ZM103.102 25.2357H107.629C107.645 24.9361 107.6 24.6363 107.495 24.3551C107.391 24.0739 107.229 23.8173 107.02 23.6016C106.812 23.3858 106.561 23.2155 106.284 23.1012C106.006 22.987 105.708 22.9314 105.408 22.9378C105.105 22.936 104.805 22.9942 104.525 23.1089C104.245 23.2237 103.991 23.3927 103.776 23.6064C103.562 23.82 103.392 24.074 103.276 24.3536C103.161 24.6333 103.102 24.933 103.102 25.2357Z" fill="white"/>
<path d="M37.8262 8.83194C38.2158 8.80398 38.6067 8.86284 38.9709 9.00427C39.335 9.1457 39.6632 9.36618 39.9317 9.64981C40.2003 9.93343 40.4026 10.2731 40.524 10.6444C40.6454 11.0157 40.6829 11.4093 40.6338 11.7968C40.6338 13.703 39.6035 14.7988 37.8262 14.7988H35.6709V8.83194H37.8262ZM36.5976 13.9549H37.7226C38.0011 13.9716 38.2797 13.9259 38.5382 13.8213C38.7967 13.7167 39.0287 13.5558 39.2172 13.3502C39.4057 13.1446 39.546 12.8996 39.6278 12.633C39.7097 12.3664 39.7311 12.0849 39.6904 11.8089C39.7281 11.5341 39.7046 11.2543 39.6215 10.9897C39.5383 10.725 39.3977 10.482 39.2096 10.2781C39.0216 10.0741 38.7907 9.91433 38.5337 9.81009C38.2766 9.70586 37.9996 9.65977 37.7226 9.67515H36.5976V13.9549Z" fill="white"/>
<path d="M41.6807 12.5453C41.6524 12.2494 41.6862 11.9508 41.7801 11.6687C41.8739 11.3866 42.0257 11.1273 42.2256 10.9073C42.4256 10.6873 42.6693 10.5116 42.9411 10.3913C43.213 10.271 43.507 10.2089 43.8042 10.2089C44.1015 10.2089 44.3955 10.271 44.6673 10.3913C44.9392 10.5116 45.1829 10.6873 45.3828 10.9073C45.5828 11.1273 45.7345 11.3866 45.8284 11.6687C45.9222 11.9508 45.9561 12.2494 45.9278 12.5453C45.9566 12.8415 45.9232 13.1405 45.8296 13.423C45.736 13.7055 45.5843 13.9653 45.3843 14.1858C45.1843 14.4062 44.9404 14.5823 44.6683 14.7028C44.3962 14.8234 44.1019 14.8856 43.8042 14.8856C43.5066 14.8856 43.2123 14.8234 42.9402 14.7028C42.668 14.5823 42.4241 14.4062 42.2241 14.1858C42.0242 13.9653 41.8725 13.7055 41.7789 13.423C41.6853 13.1405 41.6519 12.8415 41.6807 12.5453ZM45.0137 12.5453C45.0137 11.5692 44.5752 10.9984 43.8057 10.9984C43.0332 10.9984 42.5987 11.5692 42.5987 12.5453C42.5987 13.5292 43.0333 14.0956 43.8057 14.0956C44.5752 14.0956 45.0137 13.5253 45.0137 12.5453Z" fill="white"/>
<path d="M51.5732 14.7987H50.6514L49.7207 11.4823H49.6504L48.7236 14.7987H47.8105L46.5693 10.2957H47.4707L48.2773 13.7317H48.3438L49.2695 10.2957H50.1221L51.0479 13.7317H51.1182L51.9209 10.2957H52.8096L51.5732 14.7987Z" fill="white"/>
<path d="M53.8535 10.2958H54.709V11.0111H54.7754C54.888 10.7542 55.0781 10.5388 55.3189 10.395C55.5598 10.2512 55.8395 10.1861 56.1191 10.2088C56.3382 10.1924 56.5582 10.2254 56.7628 10.3055C56.9674 10.3856 57.1514 10.5107 57.3011 10.6715C57.4508 10.8324 57.5623 11.0248 57.6275 11.2347C57.6927 11.4445 57.7099 11.6663 57.6777 11.8836V14.7986H56.7891V12.1068C56.7891 11.3832 56.4746 11.0233 55.8174 11.0233C55.6686 11.0164 55.5201 11.0417 55.3821 11.0975C55.244 11.1533 55.1197 11.2384 55.0175 11.3468C54.9154 11.4551 54.8379 11.5843 54.7904 11.7255C54.7429 11.8666 54.7264 12.0163 54.7422 12.1644V14.7987H53.8535L53.8535 10.2958Z" fill="white"/>
<path d="M59.0938 8.53793H59.9824V14.7987H59.0938V8.53793Z" fill="white"/>
<path d="M61.2178 12.5453C61.1895 12.2493 61.2234 11.9507 61.3172 11.6687C61.4111 11.3866 61.5629 11.1272 61.7628 10.9072C61.9628 10.6873 62.2065 10.5115 62.4784 10.3912C62.7503 10.2709 63.0443 10.2088 63.3416 10.2088C63.6389 10.2088 63.9329 10.2709 64.2047 10.3912C64.4766 10.5115 64.7203 10.6873 64.9203 10.9072C65.1203 11.1272 65.272 11.3866 65.3659 11.6687C65.4598 11.9507 65.4936 12.2493 65.4653 12.5453C65.4942 12.8415 65.4607 13.1405 65.3671 13.423C65.2734 13.7055 65.1217 13.9653 64.9217 14.1858C64.7217 14.4062 64.4778 14.5823 64.2057 14.7028C63.9335 14.8233 63.6392 14.8856 63.3416 14.8856C63.0439 14.8856 62.7496 14.8233 62.4775 14.7028C62.2053 14.5823 61.9614 14.4062 61.7614 14.1858C61.5614 13.9653 61.4097 13.7055 61.3161 13.423C61.2225 13.1405 61.189 12.8415 61.2178 12.5453ZM64.5508 12.5453C64.5508 11.5692 64.1123 10.9984 63.3428 10.9984C62.5703 10.9984 62.1358 11.5692 62.1358 12.5453C62.1358 13.5292 62.5704 14.0956 63.3428 14.0956C64.1123 14.0956 64.5508 13.5252 64.5508 12.5453Z" fill="white"/>
<path d="M66.4009 13.5253C66.4009 12.7147 67.0044 12.2474 68.0757 12.181L69.2954 12.1107V11.722C69.2954 11.2465 68.981 10.9779 68.3735 10.9779C67.8774 10.9779 67.5337 11.16 67.4351 11.4784H66.5747C66.6655 10.705 67.3931 10.2089 68.4146 10.2089C69.5435 10.2089 70.1802 10.7709 70.1802 11.722V14.7987H69.3247V14.1659H69.2544C69.1117 14.3929 68.9113 14.5779 68.6737 14.7021C68.436 14.8264 68.1697 14.8853 67.9019 14.8729C67.7128 14.8926 67.5218 14.8724 67.341 14.8137C67.1602 14.755 66.9938 14.6591 66.8524 14.5321C66.711 14.4051 66.5977 14.2499 66.52 14.0765C66.4422 13.9031 66.4016 13.7153 66.4009 13.5253ZM69.2954 13.1405V12.764L68.1958 12.8343C67.5757 12.8758 67.2944 13.0868 67.2944 13.4838C67.2944 13.889 67.646 14.1249 68.1294 14.1249C68.2711 14.1392 68.4142 14.1249 68.5502 14.0828C68.6862 14.0407 68.8123 13.9717 68.9211 13.8799C69.0299 13.788 69.1191 13.6752 69.1834 13.5482C69.2477 13.4212 69.2858 13.2825 69.2954 13.1405Z" fill="white"/>
<path d="M71.3481 12.5453C71.3481 11.1224 72.0796 10.2211 73.2173 10.2211C73.4987 10.2081 73.778 10.2755 74.0225 10.4154C74.267 10.5553 74.4667 10.7619 74.5981 11.0111H74.6646V8.53793H75.5532V14.7987H74.7017V14.0872H74.6314C74.4897 14.3347 74.2831 14.5388 74.0339 14.6773C73.7846 14.8157 73.5022 14.8834 73.2173 14.8729C72.0718 14.8729 71.3481 13.9715 71.3481 12.5453ZM72.2661 12.5453C72.2661 13.5004 72.7163 14.0751 73.4693 14.0751C74.2183 14.0751 74.6812 13.4921 74.6812 12.5492C74.6812 11.6107 74.2134 11.0194 73.4693 11.0194C72.7212 11.0194 72.2661 11.598 72.2661 12.5453Z" fill="white"/>
<path d="M79.23 12.5453C79.2017 12.2494 79.2356 11.9508 79.3294 11.6687C79.4232 11.3866 79.575 11.1273 79.7749 10.9073C79.9749 10.6873 80.2186 10.5116 80.4904 10.3913C80.7623 10.271 81.0563 10.2089 81.3536 10.2089C81.6508 10.2089 81.9448 10.271 82.2167 10.3913C82.4885 10.5116 82.7322 10.6873 82.9322 10.9073C83.1321 11.1273 83.2839 11.3866 83.3777 11.6687C83.4715 11.9508 83.5054 12.2494 83.4771 12.5453C83.5059 12.8415 83.4725 13.1405 83.3789 13.423C83.2853 13.7055 83.1336 13.9653 82.9336 14.1858C82.7336 14.4062 82.4897 14.5823 82.2176 14.7028C81.9455 14.8234 81.6512 14.8856 81.3536 14.8856C81.0559 14.8856 80.7616 14.8234 80.4895 14.7028C80.2173 14.5823 79.9735 14.4062 79.7735 14.1858C79.5735 13.9653 79.4218 13.7055 79.3282 13.423C79.2346 13.1405 79.2012 12.8415 79.23 12.5453ZM82.563 12.5453C82.563 11.5692 82.1245 10.9984 81.355 10.9984C80.5826 10.9984 80.148 11.5692 80.148 12.5453C80.148 13.5292 80.5826 14.0956 81.355 14.0956C82.1245 14.0956 82.563 13.5253 82.563 12.5453Z" fill="white"/>
<path d="M84.6694 10.2958H85.5249V11.0111H85.5913C85.704 10.7542 85.894 10.5388 86.1348 10.395C86.3757 10.2512 86.6555 10.1861 86.9351 10.2088C87.1542 10.1924 87.3742 10.2254 87.5788 10.3055C87.7834 10.3856 87.9673 10.5107 88.117 10.6715C88.2667 10.8324 88.3783 11.0248 88.4435 11.2347C88.5087 11.4445 88.5258 11.6663 88.4937 11.8836V14.7986H87.605V12.1068C87.605 11.3832 87.2905 11.0233 86.6333 11.0233C86.4846 11.0164 86.336 11.0417 86.198 11.0975C86.0599 11.1533 85.9356 11.2384 85.8335 11.3468C85.7313 11.4551 85.6539 11.5843 85.6063 11.7255C85.5588 11.8666 85.5423 12.0163 85.5581 12.1644V14.7987H84.6694V10.2958Z" fill="white"/>
<path d="M93.5151 9.17465V10.3163H94.4907V11.0648H93.5151V13.3802C93.5151 13.8519 93.7095 14.0584 94.1519 14.0584C94.2651 14.0581 94.3783 14.0512 94.4907 14.0379V14.7782C94.3311 14.8067 94.1694 14.8219 94.0073 14.8236C93.019 14.8236 92.6255 14.4759 92.6255 13.6078V11.0648H91.9106V10.3162H92.6255V9.17465H93.5151Z" fill="white"/>
<path d="M95.7046 8.53793H96.5854V11.0194H96.6558C96.7739 10.7601 96.9691 10.5435 97.2148 10.3991C97.4605 10.2548 97.7447 10.1897 98.0288 10.2127C98.2467 10.2009 98.4646 10.2373 98.6669 10.3193C98.8692 10.4014 99.0508 10.527 99.199 10.6874C99.3471 10.8477 99.458 11.0388 99.5238 11.2469C99.5896 11.455 99.6086 11.6751 99.5795 11.8915V14.7987H98.69V12.1107C98.69 11.3914 98.355 11.0272 97.7271 11.0272C97.5743 11.0147 97.4207 11.0357 97.2769 11.0887C97.1332 11.1418 97.0027 11.2256 96.8947 11.3343C96.7867 11.4431 96.7038 11.5741 96.6517 11.7182C96.5997 11.8624 96.5797 12.0161 96.5933 12.1688V14.7987H95.7046L95.7046 8.53793Z" fill="white"/>
<path d="M104.761 13.5829C104.64 13.9944 104.379 14.3504 104.022 14.5885C103.665 14.8267 103.236 14.9318 102.81 14.8856C102.513 14.8934 102.218 14.8366 101.946 14.7191C101.673 14.6015 101.43 14.4261 101.232 14.205C101.034 13.9839 100.887 13.7223 100.8 13.4385C100.713 13.1547 100.689 12.8554 100.73 12.5614C100.69 12.2665 100.715 11.9666 100.801 11.6819C100.888 11.3972 101.034 11.1345 101.231 10.9114C101.428 10.6883 101.671 10.5101 101.942 10.3889C102.214 10.2677 102.509 10.2063 102.806 10.2088C104.059 10.2088 104.815 11.0648 104.815 12.4788V12.7889H101.635V12.8387C101.621 13.004 101.642 13.1703 101.696 13.3271C101.75 13.4838 101.837 13.6275 101.949 13.749C102.062 13.8704 102.199 13.967 102.352 14.0324C102.504 14.0977 102.669 14.1306 102.834 14.1287C103.047 14.1543 103.262 14.116 103.453 14.0188C103.644 13.9216 103.801 13.7698 103.906 13.5828L104.761 13.5829ZM101.635 12.1317H103.91C103.921 11.9806 103.9 11.8288 103.849 11.6861C103.798 11.5433 103.718 11.4129 103.614 11.303C103.509 11.1931 103.383 11.1063 103.243 11.0482C103.103 10.99 102.953 10.9617 102.801 10.9652C102.647 10.9633 102.495 10.9921 102.353 11.0501C102.21 11.108 102.081 11.1939 101.972 11.3026C101.864 11.4113 101.778 11.5407 101.72 11.6831C101.662 11.8255 101.633 11.978 101.635 12.1317Z" fill="white"/>
</g>
<defs>
<clipPath id="clip0_29_828">
<rect width="119.664" height="40" fill="white" transform="translate(0 0.100922)"/>
</clipPath>
</defs>
</svg>
