<svg width="136" height="41" viewBox="0 0 136 41" fill="none" xmlns="http://www.w3.org/2000/svg">
<g clip-path="url(#clip0_29_863)">
<path d="M130.656 0.100922H5.65625C2.89483 0.100922 0.65625 2.3395 0.65625 5.10092V35.1009C0.65625 37.8623 2.89483 40.1009 5.65625 40.1009H130.656C133.418 40.1009 135.656 37.8623 135.656 35.1009V5.10092C135.656 2.3395 133.418 0.100922 130.656 0.100922Z" fill="black"/>
<path d="M48.0763 10.3409C48.0763 11.1809 47.8263 11.8509 47.3263 12.3409C46.7663 12.9309 46.0264 13.2309 45.1264 13.2309C44.2264 13.2309 43.5263 12.9309 42.9163 12.3309C42.3063 11.7309 42.0063 10.9809 42.0063 10.1009C42.0063 9.22092 42.3063 8.47092 42.9163 7.87092C43.5263 7.27092 44.2564 6.97092 45.1264 6.97092C45.5564 6.97092 45.9664 7.05092 46.3563 7.22092C46.7463 7.39092 47.0563 7.61092 47.2963 7.89092L46.7663 8.42092C46.3663 7.95092 45.8264 7.71092 45.1264 7.71092C44.4964 7.71092 43.9464 7.93092 43.4864 8.38092C43.0264 8.82092 42.7963 9.40092 42.7963 10.1109C42.7963 10.8209 43.0264 11.4009 43.4864 11.8409C43.9464 12.2809 44.4964 12.5109 45.1264 12.5109C45.7964 12.5109 46.3564 12.2909 46.8064 11.8409C47.0964 11.5509 47.2664 11.1409 47.3064 10.6209H45.1264V9.90092H48.0364C48.0664 10.0609 48.0763 10.2109 48.0763 10.3509V10.3409Z" fill="white" stroke="white" stroke-width="0.2" stroke-miterlimit="10"/>
<path d="M52.6863 7.84092H49.9563V9.74092H52.4163V10.4609H49.9563V12.3609H52.6863V13.1009H49.1863V7.10092H52.6863V7.84092Z" fill="white" stroke="white" stroke-width="0.2" stroke-miterlimit="10"/>
<path d="M55.9363 13.1009H55.1663V7.84092H53.4863V7.10092H57.6063V7.84092H55.9263V13.1009H55.9363Z" fill="white" stroke="white" stroke-width="0.2" stroke-miterlimit="10"/>
<path d="M60.5964 13.1009V7.10092H61.3664V13.1009H60.5964Z" fill="white" stroke="white" stroke-width="0.2" stroke-miterlimit="10"/>
<path d="M64.7864 13.1009H64.0164V7.84092H62.3364V7.10092H66.4564V7.84092H64.7764V13.1009H64.7864Z" fill="white" stroke="white" stroke-width="0.2" stroke-miterlimit="10"/>
<path d="M74.2663 12.3209C73.6763 12.9309 72.9463 13.2309 72.0663 13.2309C71.1863 13.2309 70.4563 12.9309 69.8663 12.3209C69.2763 11.7109 68.9863 10.9709 68.9863 10.1009C68.9863 9.23092 69.2763 8.48092 69.8663 7.88092C70.4563 7.27092 71.1863 6.97092 72.0663 6.97092C72.9463 6.97092 73.6663 7.27092 74.2663 7.88092C74.8563 8.49092 75.1563 9.23092 75.1563 10.1009C75.1563 10.9709 74.8563 11.7209 74.2763 12.3209H74.2663ZM70.4363 11.8209C70.8763 12.2709 71.4263 12.4909 72.0663 12.4909C72.7063 12.4909 73.2563 12.2709 73.6963 11.8209C74.1363 11.3709 74.3663 10.8009 74.3663 10.1009C74.3663 9.40092 74.1463 8.83092 73.6963 8.38092C73.2563 7.93092 72.7063 7.71092 72.0663 7.71092C71.4263 7.71092 70.8763 7.93092 70.4363 8.38092C69.9963 8.83092 69.7663 9.40092 69.7663 10.1009C69.7663 10.8009 69.9863 11.3709 70.4363 11.8209Z" fill="white" stroke="white" stroke-width="0.2" stroke-miterlimit="10"/>
<path d="M76.2363 13.1009V7.10092H77.1763L80.0963 11.7709H80.1263L80.0963 10.6109V7.10092H80.8663V13.1009H80.0663L77.0163 8.21092H76.9863L77.0163 9.37092V13.1109H76.2463L76.2363 13.1009Z" fill="white" stroke="white" stroke-width="0.2" stroke-miterlimit="10"/>
<path d="M68.7963 21.8509C66.4463 21.8509 64.5263 23.6409 64.5263 26.1009C64.5263 28.5609 66.4463 30.3509 68.7963 30.3509C71.1463 30.3509 73.0663 28.5509 73.0663 26.1009C73.0663 23.6509 71.1463 21.8509 68.7963 21.8509ZM68.7963 28.6809C67.5063 28.6809 66.3963 27.6209 66.3963 26.1009C66.3963 24.5809 67.5063 23.5209 68.7963 23.5209C70.0863 23.5209 71.1963 24.5709 71.1963 26.1009C71.1963 27.6309 70.0863 28.6809 68.7963 28.6809ZM59.4763 21.8509C57.1263 21.8509 55.2063 23.6409 55.2063 26.1009C55.2063 28.5609 57.1263 30.3509 59.4763 30.3509C61.8263 30.3509 63.7463 28.5509 63.7463 26.1009C63.7463 23.6509 61.8263 21.8509 59.4763 21.8509ZM59.4763 28.6809C58.1863 28.6809 57.0763 27.6209 57.0763 26.1009C57.0763 24.5809 58.1863 23.5209 59.4763 23.5209C60.7663 23.5209 61.8763 24.5709 61.8763 26.1009C61.8763 27.6309 60.7663 28.6809 59.4763 28.6809ZM48.3963 23.1609V24.9609H52.7163C52.5863 25.9809 52.2463 26.7209 51.7363 27.2309C51.1063 27.8609 50.1263 28.5509 48.4063 28.5509C45.7463 28.5509 43.6663 26.4109 43.6663 23.7509C43.6663 21.0909 45.7463 18.9509 48.4063 18.9509C49.8363 18.9509 50.8863 19.5109 51.6563 20.2409L52.9263 18.9709C51.8463 17.9409 50.4163 17.1509 48.3963 17.1509C44.7563 17.1509 41.6963 20.1109 41.6963 23.7609C41.6963 27.4109 44.7563 30.3709 48.3963 30.3709C50.3663 30.3709 51.8463 29.7309 53.0063 28.5209C54.1963 27.3309 54.5663 25.6509 54.5663 24.3009C54.5663 23.8809 54.5363 23.4909 54.4663 23.1709H48.3963V23.1609ZM93.7063 24.5609C93.3563 23.6109 92.2763 21.8509 90.0663 21.8509C87.8563 21.8509 86.0563 23.5709 86.0563 26.1009C86.0563 28.4809 87.8563 30.3509 90.2763 30.3509C92.2263 30.3509 93.3563 29.1609 93.8163 28.4709L92.3663 27.5009C91.8863 28.2109 91.2263 28.6809 90.2763 28.6809C89.3263 28.6809 88.6463 28.2409 88.2163 27.3909L93.9063 25.0409L93.7163 24.5609H93.7063ZM87.9063 25.9809C87.8563 24.3409 89.1763 23.5009 90.1263 23.5009C90.8663 23.5009 91.4963 23.8709 91.7063 24.4009L87.9063 25.9809ZM83.2863 30.1009H85.1563V17.6009H83.2863V30.1009ZM80.2263 22.8009H80.1663C79.7463 22.3009 78.9463 21.8509 77.9263 21.8509C75.7963 21.8509 73.8463 23.7209 73.8463 26.1209C73.8463 28.5209 75.7963 30.3609 77.9263 30.3609C78.9463 30.3609 79.7463 29.9109 80.1663 29.3909H80.2263V30.0009C80.2263 31.6309 79.3563 32.5009 77.9563 32.5009C76.8163 32.5009 76.1063 31.6809 75.8163 30.9909L74.1863 31.6709C74.6563 32.8009 75.8963 34.1809 77.9563 34.1809C80.1463 34.1809 81.9963 32.8909 81.9963 29.7509V22.1109H80.2263V22.8009ZM78.0763 28.6809C76.7863 28.6809 75.7063 27.6009 75.7063 26.1209C75.7063 24.6409 76.7863 23.5309 78.0763 23.5309C79.3663 23.5309 80.3463 24.6309 80.3463 26.1209C80.3463 27.6109 79.3463 28.6809 78.0763 28.6809ZM102.466 17.6009H97.9963V30.1009H99.8663V25.3609H102.476C104.546 25.3609 106.576 23.8609 106.576 21.4809C106.576 19.1009 104.546 17.6009 102.476 17.6009H102.466ZM102.506 23.6209H99.8563V19.3309H102.506C103.906 19.3309 104.696 20.4909 104.696 21.4709C104.696 22.4509 103.906 23.6109 102.506 23.6109V23.6209ZM114.046 21.8309C112.696 21.8309 111.296 22.4309 110.716 23.7409L112.376 24.4309C112.726 23.7409 113.386 23.5109 114.076 23.5109C115.036 23.5109 116.026 24.0909 116.036 25.1209V25.2509C115.696 25.0609 114.976 24.7709 114.086 24.7709C112.296 24.7709 110.486 25.7509 110.486 27.5809C110.486 29.2509 111.946 30.3309 113.586 30.3309C114.836 30.3309 115.536 29.7709 115.966 29.1109H116.026V30.0809H117.826V25.2909C117.826 23.0709 116.166 21.8309 114.026 21.8309H114.046ZM113.816 28.6809C113.206 28.6809 112.356 28.3709 112.356 27.6209C112.356 26.6609 113.416 26.2909 114.336 26.2909C115.156 26.2909 115.546 26.4709 116.036 26.7109C115.896 27.8709 114.896 28.6909 113.816 28.6909V28.6809ZM124.396 22.1009L122.256 27.5209H122.196L119.976 22.1009H117.966L121.296 29.6809L119.396 33.8909H121.346L126.476 22.1009H124.406H124.396ZM107.596 30.1009H109.466V17.6009H107.596V30.1009Z" fill="white"/>
<path d="M21.3763 19.5209L10.7263 30.8209C11.0563 32.0509 12.1763 32.9509 13.5063 32.9509C14.0363 32.9509 14.5363 32.8109 14.9663 32.5509L14.9963 32.5309L26.9763 25.6209L21.3663 19.5109L21.3763 19.5209Z" fill="#EA4335"/>
<path d="M32.1462 17.6009H32.1362L26.9662 14.5909L21.1362 19.7809L26.9862 25.6309L32.1362 22.6609C33.0362 22.1709 33.6462 21.2209 33.6462 20.1309C33.6462 19.0409 33.0462 18.0909 32.1462 17.6109V17.6009Z" fill="#FBBC04"/>
<path d="M10.7262 9.38092C10.6662 9.62092 10.6262 9.86092 10.6262 10.1209V30.0909C10.6262 30.3509 10.6562 30.5909 10.7262 30.8309L21.7362 19.8209L10.7262 9.38092Z" fill="#4285F4"/>
<path d="M21.4563 20.1009L26.9663 14.5909L14.9963 7.65091C14.5663 7.39091 14.0563 7.24091 13.5063 7.24091C12.1763 7.24091 11.0563 8.15091 10.7263 9.37091L21.4563 20.0909V20.1009Z" fill="#34A853"/>
</g>
<defs>
<clipPath id="clip0_29_863">
<rect width="135" height="40" fill="white" transform="translate(0.664062 0.100922)"/>
</clipPath>
</defs>
</svg>
