<svg width="138" height="41" viewBox="0 0 138 41" fill="none" xmlns="http://www.w3.org/2000/svg">
<g clip-path="url(#clip0_100_991)">
<mask id="mask0_100_991" style="mask-type:luminance" maskUnits="userSpaceOnUse" x="-1" y="-1" width="140" height="42">
<path d="M138.204 -0.639832H-0.0742188V40.8446H138.204V-0.639832Z" fill="white"/>
</mask>
<g mask="url(#mask0_100_991)">
<path d="M8.57111 39.9486H7.64462C7.00348 39.9403 6.36379 39.8848 5.73084 39.7826C5.14163 39.6825 4.57042 39.4962 4.03547 39.2295C2.97285 38.6848 2.10728 37.8212 1.5602 36.7597C1.29099 36.225 1.10449 35.6524 1.00707 35.0617C0.901324 34.4273 0.844915 33.7855 0.838371 33.1423C0.838371 32.9266 0.821777 32.2076 0.821777 32.2076V8.00553C0.821777 8.00553 0.821777 7.29754 0.838371 7.09011C0.843152 6.44605 0.898638 5.80337 1.00431 5.16804C1.10047 4.57521 1.28701 4.00066 1.55743 3.46437C1.82625 2.9367 2.17831 2.45577 2.60004 2.04011C3.02128 1.61844 3.50552 1.26482 4.0354 0.9919C4.56909 0.724729 5.13951 0.538319 5.72797 0.438777C6.36261 0.334413 7.00424 0.278014 7.64735 0.270081H130.493C131.13 0.275535 131.767 0.331018 132.395 0.436018C132.989 0.533517 133.566 0.71999 134.104 0.989151C135.17 1.53856 136.034 2.40947 136.577 3.47822C136.845 4.01038 137.032 4.58004 137.131 5.16798C137.236 5.80811 137.296 6.45514 137.307 7.10396V8.01662V9.1229V31.0817V32.1878V33.142C137.298 33.7779 137.239 34.4121 137.133 35.0393C137.038 35.6342 136.852 36.2108 136.58 36.7484C136.03 37.8059 135.166 38.6668 134.107 39.2126C133.57 39.4821 132.995 39.6685 132.401 39.7657C131.768 39.8685 131.128 39.924 130.487 39.9316H129.569H8.56934L8.57111 39.9486Z" fill="black"/>
</g>
<mask id="mask1_100_991" style="mask-type:luminance" maskUnits="userSpaceOnUse" x="-1" y="-1" width="140" height="42">
<path d="M138.204 -0.639832H-0.0742188V40.8446H138.204V-0.639832Z" fill="white"/>
</mask>
<g mask="url(#mask1_100_991)">
<path d="M51.2531 27.3653H46.3883L45.2074 30.612H43.0696L47.8265 18.482H49.8453L54.7101 30.612H52.4728L51.2531 27.3653ZM47.0078 25.7059H50.6308L49.3337 22.2322C49.1567 21.7538 48.9798 21.2228 48.8082 20.642C48.6506 21.1564 48.4792 21.6791 48.2966 22.2156L47.0078 25.7059Z" fill="white"/>
</g>
<mask id="mask2_100_991" style="mask-type:luminance" maskUnits="userSpaceOnUse" x="-1" y="-1" width="140" height="42">
<path d="M138.204 -0.639832H-0.0742188V40.8446H138.204V-0.639832Z" fill="white"/>
</mask>
<g mask="url(#mask2_100_991)">
<path d="M55.5708 23.7893C55.5708 23.12 55.5486 22.3825 55.5044 21.5767H57.4403C57.5131 21.956 57.563 22.3393 57.5896 22.7245C57.9284 22.3186 58.351 21.9908 58.8283 21.7635C59.3057 21.5362 59.8267 21.415 60.3553 21.4081C60.9752 21.3983 61.5838 21.5735 62.1036 21.9115C62.6233 22.2495 63.0305 22.7348 63.2731 23.3053C63.6133 24.0897 63.7748 24.9399 63.7459 25.7944C63.767 26.7261 63.578 27.6505 63.1928 28.4991C62.8707 29.2034 62.3447 29.795 61.6828 30.1972C61.0018 30.5908 60.2263 30.7906 59.4398 30.7753C58.8211 30.7749 58.2068 30.6701 57.6228 30.4655V34.2074L55.5542 34.3844L55.5708 23.7893ZM61.0079 28.3996C61.4284 27.8465 61.6413 27.0168 61.6413 25.9105C61.6413 24.902 61.4661 24.1644 61.1158 23.698C60.9575 23.4812 60.7491 23.306 60.5083 23.1876C60.2673 23.069 60.0013 23.0108 59.733 23.0177C59.3466 23.0125 58.9653 23.1078 58.6267 23.2942C58.2672 23.498 57.9399 23.7544 57.656 24.0548V28.8946C57.8852 29.0027 58.1266 29.0825 58.3751 29.1325C58.6423 29.1903 58.9148 29.2199 59.1882 29.221C59.5353 29.2417 59.8825 29.1778 60.1994 29.0348C60.5164 28.8917 60.7939 28.6737 61.0079 28.3996Z" fill="white"/>
</g>
<mask id="mask3_100_991" style="mask-type:luminance" maskUnits="userSpaceOnUse" x="-1" y="-1" width="140" height="42">
<path d="M138.204 -0.639832H-0.0742188V40.8446H138.204V-0.639832Z" fill="white"/>
</mask>
<g mask="url(#mask3_100_991)">
<path d="M65.0044 23.7893C65.0044 23.12 64.9823 22.3825 64.938 21.5767H66.874C66.9489 21.9557 66.9998 22.3391 67.0261 22.7245C67.8317 21.8469 68.7536 21.4081 69.7917 21.4081C70.4115 21.3983 71.0202 21.5735 71.54 21.9115C72.0597 22.2495 72.4669 22.7348 72.7095 23.3053C73.0496 24.0897 73.2112 24.9399 73.1823 25.7944C73.2077 26.725 73.0234 27.6494 72.643 28.4991C72.3201 29.2039 71.7931 29.7954 71.1303 30.1972C70.4494 30.5911 69.6737 30.7911 68.8873 30.7753C68.2686 30.7749 67.6543 30.6701 67.0703 30.4655V34.2074L65.0017 34.3844L65.0044 23.7893ZM70.4499 28.3996C70.8703 27.8335 71.0805 27.0038 71.0805 25.9105C71.0805 24.902 70.9063 24.1644 70.5578 23.698C70.3995 23.4812 70.191 23.306 69.9501 23.1876C69.7093 23.069 69.4433 23.0108 69.175 23.0177C68.7886 23.013 68.4074 23.1082 68.0687 23.2942C67.709 23.498 67.3818 23.7544 67.098 24.0548V28.8946C67.3275 29.0018 67.5688 29.0817 67.817 29.1325C68.0843 29.1903 68.3567 29.2199 68.6301 29.221C68.9772 29.2413 69.3241 29.1772 69.6411 29.0341C69.958 28.8911 70.2355 28.6734 70.4499 28.3996Z" fill="white"/>
</g>
<mask id="mask4_100_991" style="mask-type:luminance" maskUnits="userSpaceOnUse" x="-1" y="-1" width="140" height="42">
<path d="M138.204 -0.639832H-0.0742188V40.8446H138.204V-0.639832Z" fill="white"/>
</mask>
<g mask="url(#mask4_100_991)">
<path d="M76.9851 30.0389C76.1014 29.5543 75.3835 28.8153 74.9248 27.9177C74.4233 26.9036 74.1765 25.7825 74.2056 24.6516C74.1698 23.4415 74.4561 22.2437 75.0353 21.1807C75.5583 20.2582 76.344 19.5122 77.2921 19.0373C78.2886 18.5505 79.3858 18.3051 80.4947 18.321C81.1673 18.318 81.8376 18.3961 82.4915 18.5534C83.103 18.6973 83.6967 18.9088 84.2615 19.1839L83.725 20.7741C82.7467 20.2807 81.6704 20.0123 80.575 19.9887C79.8017 19.9758 79.0386 20.1666 78.3624 20.5418C77.7208 20.9101 77.2052 21.4634 76.8828 22.1293C76.5121 22.9191 76.3321 23.785 76.3573 24.6571C76.3435 25.4428 76.4807 26.2239 76.7611 26.9581C77.0158 27.6079 77.4636 28.1639 78.0444 28.5511C78.706 28.965 79.4772 29.1693 80.2569 29.1374C80.6609 29.1364 81.0643 29.1021 81.4627 29.035C81.8482 28.9737 82.2271 28.8756 82.5938 28.7419V26.275H79.7894V24.6682H84.6044V29.7817C83.9058 30.1073 83.1743 30.3567 82.4224 30.5258C81.6768 30.6975 80.9142 30.7847 80.149 30.7857C79.0478 30.8121 77.9583 30.555 76.9851 30.0389Z" fill="white"/>
</g>
<mask id="mask5_100_991" style="mask-type:luminance" maskUnits="userSpaceOnUse" x="-1" y="-1" width="140" height="42">
<path d="M138.204 -0.639832H-0.0742188V40.8446H138.204V-0.639832Z" fill="white"/>
</mask>
<g mask="url(#mask5_100_991)">
<path d="M91.9527 30.6114C91.8745 30.2165 91.8263 29.8162 91.8088 29.414C91.4634 29.816 91.0412 30.1449 90.5671 30.3819C90.0318 30.653 89.4385 30.7897 88.8385 30.7802C88.3477 30.7864 87.8617 30.6814 87.4171 30.4732C86.994 30.2748 86.6405 29.954 86.402 29.5522C86.1378 29.0969 86.0066 28.5766 86.0232 28.0505C86.0076 27.6514 86.0853 27.2542 86.2499 26.8903C86.4146 26.5265 86.6617 26.2059 86.9717 25.9542C87.6023 25.4305 88.6541 25.1696 90.1273 25.1715C90.6761 25.1713 91.2241 25.21 91.7673 25.2876V25.1106C91.7673 24.3141 91.5978 23.7518 91.2585 23.4236C90.8529 23.0746 90.3266 22.8988 89.7927 22.9341C89.3146 22.9399 88.8389 23.0049 88.3767 23.1276C87.9188 23.2381 87.4724 23.3918 87.0437 23.5868L86.7173 22.0822C87.1863 21.8821 87.6734 21.7274 88.1721 21.6204C88.7991 21.4786 89.4402 21.4081 90.0831 21.4102C90.7642 21.3916 91.442 21.5131 92.0743 21.7669C92.6305 22.0128 93.0834 22.4452 93.3548 22.9894C93.6943 23.718 93.8526 24.5178 93.8167 25.3208V28.9162C93.8167 29.2849 93.8389 29.8509 93.883 30.6142L91.9527 30.6114ZM90.7136 28.952C91.1123 28.7668 91.4704 28.5046 91.7673 28.1804V26.5211C91.3083 26.4668 90.8468 26.4363 90.3846 26.4298C89.5309 26.4298 88.94 26.5681 88.6118 26.8446C88.4517 26.9799 88.3244 27.1498 88.2396 27.3414C88.1549 27.5331 88.1147 27.7415 88.1223 27.9509C88.1073 28.1319 88.1314 28.3139 88.1929 28.4847C88.2545 28.6556 88.352 28.8112 88.4791 28.9411C88.7486 29.1684 89.0949 29.2841 89.447 29.2646C89.8875 29.2579 90.3207 29.1511 90.7136 28.952Z" fill="white"/>
</g>
<mask id="mask6_100_991" style="mask-type:luminance" maskUnits="userSpaceOnUse" x="-1" y="-1" width="140" height="42">
<path d="M138.204 -0.639832H-0.0742188V40.8446H138.204V-0.639832Z" fill="white"/>
</mask>
<g mask="url(#mask6_100_991)">
<path d="M95.4146 28.4439V17.7689L97.4722 17.603V28.0767C97.4429 28.3675 97.5121 28.6596 97.6686 28.9064C97.7476 28.9914 97.845 29.0572 97.9533 29.0989C98.0616 29.1406 98.178 29.1571 98.2936 29.147C98.4812 29.139 98.667 29.1073 98.8468 29.053L99.0902 30.5354C98.8586 30.6229 98.6185 30.6858 98.3738 30.7235C98.1098 30.7692 97.8425 30.7933 97.5745 30.7953C96.1346 30.7861 95.4146 30.0018 95.4146 28.4439Z" fill="white"/>
</g>
<mask id="mask7_100_991" style="mask-type:luminance" maskUnits="userSpaceOnUse" x="-1" y="-1" width="140" height="42">
<path d="M138.204 -0.639832H-0.0742188V40.8446H138.204V-0.639832Z" fill="white"/>
</mask>
<g mask="url(#mask7_100_991)">
<path d="M100.562 28.4439V17.7689L102.622 17.603V28.0767C102.593 28.3675 102.662 28.6596 102.818 28.9064C102.897 28.9914 102.995 29.0572 103.103 29.0989C103.211 29.1406 103.328 29.1571 103.444 29.147C103.63 29.139 103.817 29.1073 103.997 29.053L104.237 30.5354C104.007 30.6229 103.767 30.6859 103.524 30.7235C103.258 30.7694 102.991 30.7935 102.722 30.7953C101.283 30.7861 100.563 30.0018 100.562 28.4439Z" fill="white"/>
</g>
<mask id="mask8_100_991" style="mask-type:luminance" maskUnits="userSpaceOnUse" x="-1" y="-1" width="140" height="42">
<path d="M138.204 -0.639832H-0.0742188V40.8446H138.204V-0.639832Z" fill="white"/>
</mask>
<g mask="url(#mask8_100_991)">
<path d="M112.697 26.3582H106.786C106.881 28.2518 107.782 29.1986 109.491 29.1986C109.93 29.1963 110.368 29.1443 110.794 29.0436C111.231 28.9422 111.657 28.8034 112.07 28.6288L112.523 30.0449C111.458 30.5466 110.292 30.7983 109.116 30.7805C108.273 30.8049 107.437 30.6144 106.687 30.2274C106.038 29.8764 105.517 29.3283 105.2 28.662C104.848 27.8901 104.678 27.0482 104.702 26.2006C104.678 25.3123 104.86 24.4307 105.23 23.6231C105.545 22.9376 106.056 22.3605 106.698 21.9637C107.356 21.5761 108.109 21.379 108.872 21.3939C109.629 21.3671 110.377 21.577 111.01 21.9941C111.581 22.3903 112.023 22.9451 112.282 23.5899C112.567 24.2922 112.708 25.0445 112.697 25.8024V26.3582ZM110.681 25.0445C110.685 24.4574 110.49 23.8862 110.128 23.4239C109.965 23.2421 109.765 23.0983 109.541 23.0027C109.317 22.9072 109.074 22.862 108.831 22.8708C108.586 22.8658 108.342 22.9123 108.116 23.0077C107.89 23.103 107.687 23.2448 107.52 23.4239C107.13 23.8782 106.891 24.4428 106.836 25.039L110.681 25.0445Z" fill="white"/>
</g>
<mask id="mask9_100_991" style="mask-type:luminance" maskUnits="userSpaceOnUse" x="-1" y="-1" width="140" height="42">
<path d="M138.204 -0.639832H-0.0742188V40.8446H138.204V-0.639832Z" fill="white"/>
</mask>
<g mask="url(#mask9_100_991)">
<path d="M114.263 23.8474C114.263 23.3523 114.238 22.5946 114.195 21.5796H116.13C116.163 21.8313 116.194 22.1327 116.227 22.4784C116.261 22.8241 116.277 23.1117 116.287 23.3302C116.496 22.9777 116.732 22.6429 116.996 22.3291C117.224 22.0609 117.5 21.8368 117.809 21.668C118.134 21.4925 118.499 21.404 118.868 21.4108C119.148 21.404 119.428 21.4385 119.697 21.5132L119.438 23.3053C119.114 23.2116 118.773 23.1877 118.441 23.2354C118.107 23.2831 117.786 23.4012 117.502 23.5819C117.045 23.9221 116.645 24.3351 116.321 24.8042V30.6121H114.263V23.8474Z" fill="white"/>
</g>
<mask id="mask10_100_991" style="mask-type:luminance" maskUnits="userSpaceOnUse" x="-1" y="-1" width="140" height="42">
<path d="M138.204 -0.639832H-0.0742188V40.8446H138.204V-0.639832Z" fill="white"/>
</mask>
<g mask="url(#mask10_100_991)">
<path d="M120.849 34.3098C120.596 34.2689 120.348 34.2089 120.104 34.13L120.48 32.6227C120.655 32.6696 120.831 32.7073 121.008 32.7361C121.207 32.7714 121.41 32.79 121.612 32.7915C122.533 32.7915 123.219 32.2024 123.67 31.0242L123.804 30.6895L120.472 21.5796H122.684L124.377 26.671C124.594 27.326 124.769 27.9938 124.903 28.6706C125.06 28.0179 125.243 27.3653 125.455 26.7125L127.143 21.5796H129.225L125.907 30.731C125.656 31.4682 125.315 32.1714 124.891 32.8246C124.569 33.318 124.127 33.723 123.608 34.0028C123.051 34.2744 122.438 34.4073 121.819 34.39C121.494 34.3912 121.169 34.3643 120.849 34.3098Z" fill="white"/>
</g>
<mask id="mask11_100_991" style="mask-type:luminance" maskUnits="userSpaceOnUse" x="-1" y="-1" width="140" height="42">
<path d="M138.204 -0.639832H-0.0742188V40.8446H138.204V-0.639832Z" fill="white"/>
</mask>
<g mask="url(#mask11_100_991)">
<path d="M43.0693 6.93243H46.7477L46.6453 7.82297H44.1424V9.54592H46.5014V10.3756H44.1424V12.2839H46.778L46.6868 13.1882H43.0693V6.93243Z" fill="white"/>
</g>
<mask id="mask12_100_991" style="mask-type:luminance" maskUnits="userSpaceOnUse" x="-1" y="-1" width="140" height="42">
<path d="M138.204 -0.639832H-0.0742188V40.8446H138.204V-0.639832Z" fill="white"/>
</mask>
<g mask="url(#mask12_100_991)">
<path d="M49.29 9.99679L47.354 6.93243H48.582L49.8984 9.18369L51.2812 6.93243H52.4732L50.5372 9.9581L52.6309 13.1883H51.3863L49.8956 10.7269L48.3773 13.1883H47.1853L49.29 9.99679Z" fill="white"/>
</g>
<mask id="mask13_100_991" style="mask-type:luminance" maskUnits="userSpaceOnUse" x="-1" y="-1" width="140" height="42">
<path d="M138.204 -0.639832H-0.0742188V40.8446H138.204V-0.639832Z" fill="white"/>
</mask>
<g mask="url(#mask13_100_991)">
<path d="M53.4238 6.93243H55.1109C55.9018 6.93243 56.5084 7.09377 56.9306 7.41642C57.1406 7.58167 57.3077 7.79519 57.4174 8.03883C57.5273 8.28248 57.5765 8.54903 57.5612 8.81583C57.5729 9.1969 57.4771 9.57358 57.2847 9.90272C57.0969 10.2122 56.823 10.4602 56.4965 10.6163C56.1337 10.7878 55.7361 10.8729 55.3349 10.8652C55.0563 10.8612 54.7787 10.8326 54.5052 10.7795V13.1883H53.4238V6.93243ZM56.1341 9.72569C56.2521 9.61238 56.3441 9.47483 56.4039 9.32252C56.4635 9.17021 56.4894 9.00676 56.4799 8.84346C56.4939 8.68695 56.4692 8.52939 56.408 8.38469C56.3467 8.23998 56.2508 8.11259 56.1286 8.01377C55.8174 7.8242 55.4551 7.73535 55.0915 7.75932H54.5052V9.97179C54.7107 10.0088 54.9187 10.0301 55.1275 10.0354C55.4901 10.0626 55.8495 9.95202 56.1341 9.72569Z" fill="white"/>
</g>
<mask id="mask14_100_991" style="mask-type:luminance" maskUnits="userSpaceOnUse" x="-1" y="-1" width="140" height="42">
<path d="M138.204 -0.639832H-0.0742188V40.8446H138.204V-0.639832Z" fill="white"/>
</mask>
<g mask="url(#mask14_100_991)">
<path d="M58.6292 6.93243H59.7077V12.2646H62.2964L62.2051 13.1883H58.6292V6.93243Z" fill="white"/>
</g>
<mask id="mask15_100_991" style="mask-type:luminance" maskUnits="userSpaceOnUse" x="-1" y="-1" width="140" height="42">
<path d="M138.204 -0.639832H-0.0742188V40.8446H138.204V-0.639832Z" fill="white"/>
</mask>
<g mask="url(#mask15_100_991)">
<path d="M63.9391 12.881C63.4858 12.626 63.1197 12.2406 62.8882 11.7748C62.6366 11.2585 62.5123 10.6896 62.5259 10.1154C62.5126 9.51544 62.6455 8.92129 62.9131 8.38407C63.1583 7.89987 63.5438 7.50086 64.0193 7.2391C64.5516 6.96031 65.1473 6.82496 65.7478 6.84638C66.3156 6.83114 66.8774 6.96563 67.3768 7.23633C67.8273 7.49229 68.1906 7.8777 68.4194 8.34262C68.666 8.85349 68.7883 9.41551 68.7762 9.9827C68.7912 10.5893 68.6573 11.1904 68.3862 11.7333C68.1386 12.2158 67.7537 12.6143 67.28 12.8783C66.757 13.1565 66.1714 13.2955 65.5792 13.2821C65.0065 13.2966 64.4404 13.1581 63.9391 12.881ZM66.7379 12.115C67.0428 11.9129 67.2798 11.6238 67.4183 11.2853C67.5734 10.8977 67.6497 10.483 67.6423 10.0656C67.6492 9.65586 67.5817 9.24823 67.4432 8.86259C67.319 8.52855 67.0974 8.23949 66.8071 8.0329C66.4702 7.82684 66.0832 7.7178 65.6884 7.7178C65.2935 7.7178 64.9064 7.82684 64.5696 8.0329C64.2639 8.24502 64.0258 8.54077 63.8838 8.88472C63.7265 9.25631 63.6483 9.65663 63.6542 10.0601C63.6475 10.4759 63.7208 10.8889 63.87 11.277C64.0024 11.632 64.2447 11.9356 64.5615 12.1435C64.8784 12.3514 65.2532 12.4528 65.6316 12.433C66.0243 12.4427 66.4104 12.3316 66.7379 12.115Z" fill="white"/>
</g>
<mask id="mask16_100_991" style="mask-type:luminance" maskUnits="userSpaceOnUse" x="-1" y="-1" width="140" height="42">
<path d="M138.204 -0.639832H-0.0742188V40.8446H138.204V-0.639832Z" fill="white"/>
</mask>
<g mask="url(#mask16_100_991)">
<path d="M69.9792 6.93242H71.9373C72.5109 6.89182 73.0819 7.04258 73.5607 7.3611C73.7444 7.50533 73.8906 7.69178 73.987 7.90458C74.0832 8.11739 74.1268 8.35029 74.1138 8.5835C74.1203 8.88677 74.0519 9.18694 73.9147 9.45745C73.7947 9.69464 73.6271 9.90455 73.4225 10.0742C73.2394 10.2219 73.0341 10.3396 72.814 10.4227L74.75 13.1882H73.4915L71.8626 10.6992H71.0688V13.1882H69.9792V6.93242ZM71.6745 9.89172C71.9147 9.8969 72.1527 9.84474 72.3688 9.73957C72.5632 9.64615 72.7273 9.49942 72.8417 9.31643C72.9558 9.12111 73.0141 8.89823 73.0103 8.67204C73.0215 8.54149 73 8.41022 72.9479 8.29003C72.8957 8.16983 72.8146 8.06446 72.7116 7.9834C72.4523 7.82107 72.1485 7.74462 71.8433 7.76491H71.0605V9.90271L71.6745 9.89172Z" fill="white"/>
</g>
<mask id="mask17_100_991" style="mask-type:luminance" maskUnits="userSpaceOnUse" x="-1" y="-1" width="140" height="42">
<path d="M138.204 -0.639832H-0.0742188V40.8446H138.204V-0.639832Z" fill="white"/>
</mask>
<g mask="url(#mask17_100_991)">
<path d="M75.5933 6.93243H79.2799L79.1748 7.82297H76.6858V9.54592H79.0227V10.3756H76.6636V12.2839H79.2993L79.219 13.1882H75.5933V6.93243Z" fill="white"/>
</g>
<mask id="mask18_100_991" style="mask-type:luminance" maskUnits="userSpaceOnUse" x="-1" y="-1" width="140" height="42">
<path d="M138.204 -0.639832H-0.0742188V40.8446H138.204V-0.639832Z" fill="white"/>
</mask>
<g mask="url(#mask18_100_991)">
<path d="M83.2905 6.93243H84.3691V13.1883H83.2905V6.93243Z" fill="white"/>
</g>
<mask id="mask19_100_991" style="mask-type:luminance" maskUnits="userSpaceOnUse" x="-1" y="-1" width="140" height="42">
<path d="M138.204 -0.639832H-0.0742188V40.8446H138.204V-0.639832Z" fill="white"/>
</mask>
<g mask="url(#mask19_100_991)">
<path d="M87.2255 7.83409H85.2896L85.3836 6.9325H90.2511L90.1515 7.83409H88.3069V13.1883H87.2255V7.83409Z" fill="white"/>
</g>
<mask id="mask20_100_991" style="mask-type:luminance" maskUnits="userSpaceOnUse" x="-1" y="-1" width="140" height="42">
<path d="M138.204 -0.639832H-0.0742188V40.8446H138.204V-0.639832Z" fill="white"/>
</mask>
<g mask="url(#mask20_100_991)">
<path d="M94.9394 12.881C94.487 12.6257 94.1217 12.2404 93.8913 11.7748C93.6374 11.2592 93.5121 10.6899 93.5262 10.1154C93.5129 9.51544 93.6459 8.92129 93.9134 8.38406C94.1594 7.90037 94.5447 7.50153 95.0197 7.23909C95.5479 6.95893 96.1394 6.81985 96.7371 6.8353C97.3116 6.81984 97.8797 6.95829 98.3826 7.23632C98.8338 7.49146 99.1972 7.87709 99.4253 8.34261C99.6729 8.85324 99.7961 9.41519 99.7848 9.9827C99.8002 10.5896 99.6653 11.191 99.3921 11.7333C99.1453 12.2164 98.7602 12.615 98.2858 12.8783C97.7631 13.1572 97.1773 13.2963 96.585 13.2821C96.0105 13.2975 95.4424 13.159 94.9394 12.881ZM97.741 12.115C98.0444 11.912 98.2803 11.6231 98.4186 11.2853C98.5737 10.8977 98.65 10.483 98.6426 10.0656C98.6496 9.65584 98.582 9.24823 98.4435 8.86259C98.3205 8.52873 98.0998 8.23964 97.8101 8.0329C97.4729 7.8266 97.0854 7.71742 96.69 7.71742C96.2948 7.71742 95.9072 7.8266 95.57 8.0329C95.2642 8.24502 95.0261 8.54076 94.8841 8.88471C94.7281 9.2567 94.6499 9.65673 94.6546 10.0601C94.648 10.4758 94.7212 10.8889 94.8703 11.277C95.0022 11.6181 95.2323 11.9126 95.5313 12.1233C95.8587 12.3393 96.2455 12.4477 96.6376 12.433C97.0291 12.4411 97.4138 12.3302 97.741 12.115Z" fill="white"/>
</g>
<mask id="mask21_100_991" style="mask-type:luminance" maskUnits="userSpaceOnUse" x="-1" y="-1" width="140" height="42">
<path d="M138.204 -0.639832H-0.0742188V40.8446H138.204V-0.639832Z" fill="white"/>
</mask>
<g mask="url(#mask21_100_991)">
<path d="M100.982 6.93243H102.221L105.316 11.7806C105.288 11.3188 105.277 10.8957 105.277 10.5057V6.93243H106.278V13.1883H105.078L101.936 8.26274C101.966 8.81586 101.983 9.31644 101.983 9.75068V13.1883H100.982V6.93243Z" fill="white"/>
</g>
<mask id="mask22_100_991" style="mask-type:luminance" maskUnits="userSpaceOnUse" x="-1" y="-1" width="140" height="42">
<path d="M138.204 -0.639832H-0.0742188V40.8446H138.204V-0.639832Z" fill="white"/>
</mask>
<g mask="url(#mask22_100_991)">
<path fill-rule="evenodd" clip-rule="evenodd" d="M27.8591 6.96561H16.3793C10.967 6.96561 8.98682 8.94576 8.98682 14.3581V25.8462C8.98682 31.2585 10.967 33.2387 16.3793 33.2387H27.8591C33.2715 33.2387 35.2545 31.2585 35.2545 25.8462V14.3581C35.26 8.94587 33.2798 6.96561 27.8591 6.96561Z" fill="#C8102E"/>
</g>
<mask id="mask23_100_991" style="mask-type:luminance" maskUnits="userSpaceOnUse" x="-1" y="-1" width="140" height="42">
<path d="M138.204 -0.639832H-0.0742188V40.8446H138.204V-0.639832Z" fill="white"/>
</mask>
<g mask="url(#mask23_100_991)">
<path d="M14.188 20.1024H14.885V23.5401H14.188V22.1434H12.6144V23.5401H11.9175V20.1024H12.6144V21.4852H14.188V20.1024ZM18.1153 22.0687C18.1153 22.6218 17.8387 22.9261 17.3353 22.9261C16.832 22.9261 16.5499 22.6218 16.5499 22.0384V20.1024H15.853V22.0659C15.853 23.0312 16.3895 23.5843 17.3243 23.5843C18.2591 23.5843 18.8122 23.0312 18.8122 22.0356V20.1024H18.1153V22.0687ZM26.1687 22.4642L25.3888 20.1024H24.8163L24.042 22.467L23.2814 20.1024H22.5403L23.7377 23.5401H24.3158L25.0929 21.2833L25.8728 23.5401H26.4564L27.6539 20.1024H26.9294L26.1687 22.4642ZM28.9012 22.0577H30.1706V21.4354H28.9012V20.7329H30.7431V20.1024H28.2154V23.5318H30.8095V22.9122H28.9012V22.0577ZM31.6392 23.5318H32.3278V20.1024H31.6392V23.5318ZM20.1895 22.821L19.877 23.5345H19.1662L20.6679 20.1024H21.2819L22.7892 23.5345H22.0701L21.7742 22.8238L20.1895 22.821ZM20.4495 22.2015H21.4976L20.9722 20.9736L20.4495 22.2015Z" fill="white"/>
</g>
<mask id="mask24_100_991" style="mask-type:luminance" maskUnits="userSpaceOnUse" x="-1" y="-1" width="140" height="42">
<path d="M138.204 -0.639832H-0.0742188V40.8446H138.204V-0.639832Z" fill="white"/>
</mask>
<g mask="url(#mask24_100_991)">
<path d="M22.1229 15.7299C20.9635 15.7292 19.8518 15.2683 19.0319 14.4485C18.2121 13.6287 17.7512 12.5169 17.7505 11.3575H18.3672C18.3672 12.3535 18.7629 13.3088 19.4672 14.0132C20.1715 14.7175 21.1268 15.1132 22.1229 15.1132C23.119 15.1132 24.0743 14.7175 24.7786 14.0132C25.483 13.3088 25.8786 12.3535 25.8786 11.3575H26.4954C26.4947 12.5169 26.0338 13.6287 25.214 14.4485C24.3941 15.2683 23.2823 15.7292 22.1229 15.7299Z" fill="white"/>
</g>
</g>
<defs>
<clipPath id="clip0_100_991">
<rect width="136.79" height="40" fill="white" transform="translate(0.664062 0.100922)"/>
</clipPath>
</defs>
</svg>
